<svg xmlns="http://www.w3.org/2000/svg" width="47.59" height="36.152" viewBox="0 0 47.59 36.152">
  <g id="Group_126" data-name="Group 126" transform="translate(-1.003 -4.55)">
    <path id="Path_288" data-name="Path 288" d="M28.932,32.279H10.8a6.678,6.678,0,0,1-6.8-6.8V13.467A2.141,2.141,0,0,1,6.267,11.2h27.2a2.141,2.141,0,0,1,2.267,2.267V25.479A6.678,6.678,0,0,1,28.932,32.279Z" transform="translate(3.795 8.423)" fill="#d8d8ff"/>
    <path id="Path_289" data-name="Path 289" d="M47.46,17.356l-2.267-1.133L24.795,4.89a2.059,2.059,0,0,0-2.267,0L2.129,16.223a2.165,2.165,0,0,0-.907,2.947,1.77,1.77,0,0,0,.907.907l20.4,11.333a2.059,2.059,0,0,0,2.267,0L44.06,20.756v6.573a2.267,2.267,0,1,0,4.533,0V19.623A2.5,2.5,0,0,0,47.46,17.356Z" transform="translate(0 0)" fill="#b2b1ff"/>
  </g>
</svg>
