<svg id="Group_115" data-name="Group 115" xmlns="http://www.w3.org/2000/svg" width="44.575" height="24.024" viewBox="0 0 44.575 24.024">
  <path id="Path_282" data-name="Path 282" d="M10.531,10.868H3.979a2.184,2.184,0,0,1,0-4.368h6.552a2.184,2.184,0,0,1,0,4.368ZM8.347,19.6H3.979a2.184,2.184,0,1,1,0-4.368H8.347a2.184,2.184,0,0,1,0,4.368Z" transform="translate(-1.795 -6.5)" fill="#6563ff"/>
  <path id="Path_283" data-name="Path 283" d="M36.723,8.84A6.54,6.54,0,0,0,31.7,6.5H14.367A6.533,6.533,0,0,0,8.648,9.87l8.528,9.644a6.5,6.5,0,0,0,9.045.759l11.62-9.415A6.518,6.518,0,0,0,36.723,8.84Z" transform="translate(6.319 -6.5)" fill="#b2b1ff"/>
  <path id="Path_284" data-name="Path 284" d="M8.655,8.04l-.007.007.011.011,0-.009Z" transform="translate(6.319 -4.677)" fill="#d8d8ff"/>
  <path id="Path_285" data-name="Path 285" d="M38.92,8.084a7.1,7.1,0,0,1,.393.961l.024-.02A6.506,6.506,0,0,0,38.92,8.084ZM27.717,18.44a6.5,6.5,0,0,1-9.045-.759L10.154,8.048a6.33,6.33,0,0,0-.744,2.033L7.484,21a6.551,6.551,0,0,0,6.453,7.689H31.274a6.541,6.541,0,0,0,6.452-5.414l1.926-10.921a6.547,6.547,0,0,0,.1-1.14,6.2,6.2,0,0,0-.439-2.171Z" transform="translate(4.823 -4.667)" fill="#d8d8ff"/>
</svg>
