<svg xmlns="http://www.w3.org/2000/svg" width="38" height="34.2" viewBox="0 0 38 34.2">
  <g id="Group_125" data-name="Group 125" transform="translate(-2 -3)">
    <path id="Path_286" data-name="Path 286" d="M34.3,6H7.7A5.706,5.706,0,0,0,2,11.7v3.8a1.9,1.9,0,0,0,1.3,1.8l11.4,3.8a1.9,1.9,0,0,0,.6.1H26.7a1.9,1.9,0,0,0,.6-.1l11.4-3.8A1.9,1.9,0,0,0,40,15.5V11.7A5.706,5.706,0,0,0,34.3,6Z" transform="translate(0 2.7)" fill="#d8d8ff"/>
    <path id="Path_287" data-name="Path 287" d="M38.7,20,27.3,23.8a1.9,1.9,0,0,1-.6.1H15.3a1.9,1.9,0,0,1-.6-.1L3.3,20A1.9,1.9,0,0,1,2,18.2V31.5a5.7,5.7,0,0,0,5.7,5.7H34.3A5.7,5.7,0,0,0,40,31.5V18.2A1.9,1.9,0,0,1,38.7,20ZM17.2,8.7l0-1.9h7.6V8.7h3.8V6.8A3.8,3.8,0,0,0,24.8,3H17.2a3.8,3.8,0,0,0-3.8,3.8V8.7Z" transform="translate(0)" fill="#b2b1ff"/>
  </g>
</svg>
