<svg xmlns="http://www.w3.org/2000/svg" width="52" height="49.993" viewBox="0 0 52 49.993">
  <g id="Group_80" data-name="Group 80" transform="translate(9025.392 9213.57)">
    <path id="Path_81" data-name="Path 81" d="M2456.456,965.575c1.835.941,4.463,5.163,1.614,6.506-3.383,1.594-9.92,2.394-14.647,2.349-8.642-.081-7.886-6.429-2.541-8.568l.042-.017.178-.068h0l.088-.032c7.235-2.752,13.429-1.11,15.263-.169" transform="translate(-11444.83 -10162.241)" fill="#7dd13d"/>
    <path id="Path_82" data-name="Path 82" d="M2451.656,1023.461c4.727.045,11.264-.755,14.647-2.349,2.609-.526,5.844,5.5,1.965,7.653-.057.032-.116.063-.175.094-4.106,2.185-9.736,2.569-15.277,1.931h0c-3.236-.373-5.706-1.326-6.233-2.976-1.042-3.272,3.614-4.1,5.073-4.353" transform="translate(-11453.329 -10211.999)" fill="#7dd13d"/>
    <path id="Path_83" data-name="Path 83" d="M2473.853,1077.61c2.043,0,4.951,4.5,1.656,6.839a8.693,8.693,0,0,1-1.291.705,16.614,16.614,0,0,1-3.365,1.077h0a37.091,37.091,0,0,1-12.48.387c-4.134-.6-5.471-3.064-5.237-4.712.415-2.92,5.31-2.329,5.438-2.368h0c5.541.638,11.171.254,15.277-1.932Z" transform="translate(-11459.231 -10261.435)" fill="#7dd13d"/>
    <path id="Path_84" data-name="Path 84" d="M2317.177,871.481c-.119.036-4.639-.51-5.021,2.187-.216,1.522,1.019,3.8,4.836,4.351a34.249,34.249,0,0,0,11.523-.357h0c.191.008,16.055.716,15.045,6.073-1.072,5.7-16.022,2.435-16.022,2.435-15.207,5.818-28.262,3.739-33.682-5.5-4.567-7.784-1.124-15.919,1.1-22.223,2.324-6.578-4.851-16.577.127-18.632s14.256,4,13.719,19.076c0,0,2.034-.969,4.956-2.092-4.936,1.975-5.633,7.837,2.347,7.911-1.348.233-5.646,1-4.685,4.02.486,1.523,2.767,2.4,5.755,2.748" transform="translate(-11317 -10053)" fill="#7dd13d"/>
    <path id="Path_85" data-name="Path 85" d="M2434.6,991.837a24.943,24.943,0,0,1-9.585,1.677,41.585,41.585,0,0,1-4.687-.276c-.051,0-.115,0-.213-.006-2.033-.1-4.509.172-4.766,1.984-.2,1.377.936,3.633,4.854,4.2a36.813,36.813,0,0,0,12.318-.381.447.447,0,0,1,.1-.011.453.453,0,0,1,.08.9,35.729,35.729,0,0,1-7.456.742,36.466,36.466,0,0,1-5.169-.353c-4.573-.663-5.867-3.487-5.621-5.224a3.039,3.039,0,0,1,2.587-2.513c-1.59-.509-2.948-1.324-3.364-2.63a2.857,2.857,0,0,1,.219-2.443,4.971,4.971,0,0,1,2.631-1.858c-2.293-.474-3.788-1.574-4.218-3.168-.509-1.889.67-4.061,2.934-5.407a.453.453,0,0,1,.463.779c-1.91,1.135-2.924,2.9-2.521,4.392.464,1.723,2.652,2.729,6,2.76h0c4.652.046,11.112-.734,14.449-2.306a.453.453,0,1,1,.386.82c-3.45,1.626-10.05,2.432-14.8,2.393-.959.166-3.693.657-4.548,2.065a1.966,1.966,0,0,0-.13,1.7c.418,1.311,2.547,2.281,5.842,2.662h.012c3.843.442,9.366.57,13.854-1.331a.453.453,0,1,1,.353.834m-23.8-7.448a.453.453,0,0,0-.221.6c.862,1.864,1.078,4.878.592,8.268-.427,2.982-1.347,5.715-2.29,6.8a.453.453,0,0,0,.684.594c2.164-2.492,3.92-11.535,1.836-16.043a.454.454,0,0,0-.6-.221" transform="translate(-11420.338 -10174.231)" fill="#138c06"/>
  </g>
</svg>
