<svg xmlns="http://www.w3.org/2000/svg" width="175.001" height="149" viewBox="0 0 175.001 149">
  <g id="Group_151" data-name="Group 151" transform="translate(11115.385 9235.645)">
    <path id="Path_79" data-name="Path 79" d="M370.164,858.758c-16.07,1.752-31.5,38.314-31.5,38.314h-.157a26.4,26.4,0,0,0-1.274-8.239,15.923,15.923,0,0,0-1.237-2.825c-4.573-7.579-17.81-5.447-18.783-1.753l-.009,0c-.053-.128-.107-.256-.165-.383-2.783-7.328-17.662-7.047-19.848-2.973,0,0,4.907-63.547-14.178-63.547-23.691,0-5.152,95.924-22.223,80.034-28.31-26.351-59.089-18.43-59.173-3.6-.075,13.374,33.416,11.037,37.82,28.645,7.864,31.469,32.273,43.919,59.659,43.919,34.232,0,50.475-18.759,63.873-62.479,0,0,25.126-47.073,7.2-45.118M296.719,918.9q1.126,1.021,2.19,2.074a7.548,7.548,0,0,1-2.19-2.074" transform="translate(-11317 -10053)" fill="#f963ba"/>
    <path id="Path_80" data-name="Path 80" d="M463.575,1003.154h-.016a1.243,1.243,0,0,0-1.227,1.259,47.366,47.366,0,0,1-4.845,20.861,10.742,10.742,0,0,1-13.357,5.591c-3.721-1.379-4.7-4.5-3-9.552.05-.149.088-.263.116-.367,3.49-7.778,6.67-19.23,2.17-29.847a1.243,1.243,0,1,0-2.289.97c4.172,9.841,1.107,20.642-2.2,27.969-.009.019-.017.038-.024.057-1.439,3.173-4.543,8.428-9.317,8.428-.1,0-.186,0-.277-.007a9.558,9.558,0,0,1-4.574-1.216c-.661-.65-1.328-1.281-1.988-1.883-1.873-2.749-1.466-6.555-1.293-7.667.241-1.558.532-3.22.841-4.979,1.449-8.257,3.091-17.616.867-23.852a1.243,1.243,0,0,0-2.341.835c2,5.617.422,14.632-.974,22.586-.311,1.772-.6,3.446-.849,5.028a16.551,16.551,0,0,0-.035,4.823c-6-4.763-12.012-7.878-16.932-8.7a1.243,1.243,0,0,0-.41,2.452c5.447.91,12.464,4.969,19.264,11.139a8.8,8.8,0,0,0,2.3,2.176c5.111,5.064,8.823,10.267,9.7,13.594a1.243,1.243,0,0,0,1.2.927,1.228,1.228,0,0,0,.317-.042,1.242,1.242,0,0,0,.886-1.518c-.786-2.991-3.367-7.05-7.118-11.3.339.036.683.066,1.038.081.128,0,.251.009.378.009,3.053,0,5.895-1.568,8.308-4.5a7.733,7.733,0,0,0,5.371,6.683,13.305,13.305,0,0,0,16.442-6.806,49.973,49.973,0,0,0,5.109-22.009,1.243,1.243,0,0,0-1.242-1.227" transform="translate(-11442.069 -10160.325)" fill="#d14b9e"/>
  </g>
</svg>
