<svg xmlns="http://www.w3.org/2000/svg" width="19" height="20" viewBox="0 0 19 20">
  <g id="Group_134" data-name="Group 134" transform="translate(-2.5 -2)">
    <path id="Path_293" data-name="Path 293" d="M21.207,11.293l-3-3a1,1,0,0,0-1.414,1.415L18.086,11H12.5a1,1,0,0,0,0,2h5.586l-1.293,1.293a1,1,0,1,0,1.414,1.414l3-3a1,1,0,0,0,0-1.415Z" transform="translate(0 0)" fill="#6563ff"/>
    <path id="Path_294" data-name="Path 294" d="M12.5,13a1,1,0,0,1,0-2h4V5a3,3,0,0,0-3-3h-8a3,3,0,0,0-3,3V19a3,3,0,0,0,3,3h8a3,3,0,0,0,3-3V13Z" transform="translate(0 0)" fill="#b2b1ff"/>
  </g>
</svg>
