<svg xmlns="http://www.w3.org/2000/svg" width="26.223" height="26.223" viewBox="0 0 26.223 26.223">
  <g id="Group_154" data-name="Group 154" transform="translate(-2 -2)">
    <path id="Path_295" data-name="Path 295" d="M22.978,12.489a5.245,5.245,0,1,1,5.245-5.245A5.245,5.245,0,0,1,22.978,12.489Zm0,15.734a5.245,5.245,0,1,1,5.245-5.245A5.245,5.245,0,0,1,22.978,28.223ZM7.245,20.356a5.245,5.245,0,1,1,5.245-5.245A5.245,5.245,0,0,1,7.245,20.356Z" fill="#b2b1ff"/>
    <path id="Path_296" data-name="Path 296" d="M10.14,12.167l6.688-3.079a5.189,5.189,0,0,1-1.113-2.373L8.795,9.9a5.223,5.223,0,0,1,1.344,2.268ZM16.828,18.2l-6.691-3.079a5.231,5.231,0,0,1-1.345,2.267l6.923,3.185A5.189,5.189,0,0,1,16.829,18.2Z" transform="translate(2.113 1.467)" fill="#6563ff"/>
  </g>
</svg>
