<svg xmlns="http://www.w3.org/2000/svg" width="184.476" height="133.957" viewBox="0 0 184.476 133.957">
  <g id="Group_108" data-name="Group 108" transform="translate(10125.211 9809.308)">
    <path id="Path_92" data-name="Path 92" d="M1522.746,367.279c4.494-10.85,17.384-26.557,11.734-33.2-6.423-7.546-23.178,15.246-23.178,15.246-.857.824-1.5,1.18-1.96,1.139a.74.74,0,0,1-.087-.01s-.007,0-.013,0c-5.1-1.139,13.505-55.375-.145-53.681-9.4,1.167-15.935,23.34-18.473,33.6,2.376-17.095.924-47.251-7.8-41.931-8.013,4.884-10.352,27.817-10.9,35.1,2.4-6.477,6.033-13.186,11.038-14.446,11.314-2.854-.588,29.548-.588,29.548-2.7,16.8-6.167,27.854-12.708,35.285a64.387,64.387,0,0,1-7.505,9.677c-.262.282-.531.568-.81.86,6.148,7.926,24.4,23.108,40.979,23.1,24.967,0,45.278-25.945,20.419-40.294" transform="translate(-11499.768 -10082.924)" fill="#fdad17"/>
    <path id="Path_93" data-name="Path 93" d="M1335.807,326.981c-2.7,16.8-6.17,27.856-12.71,35.288,0,0-19.365,33.641-52.26,29.678-27.019-3.255-6.4-24.823-11.214-39.3-.475-.894-.912-1.811-1.3-2.753-4.492-10.848-17.384-26.557-11.732-33.2,6.423-7.544,23.177,15.245,23.177,15.245,10.865,10.467-12.708-54.405,2.206-52.554,9.4,1.168,15.94,23.353,18.472,33.615h0c-.168-1.211-.318-2.483-.446-3.806-.029-.291-.056-.587-.083-.883q-.1-1.124-.181-2.286c-.016-.219-.029-.44-.043-.662-.008-.088-.013-.176-.019-.267-1.053-17.016-.483-36.335,6.876-34.326,10.8,2.95,12.738,37.609,12.738,37.609l.123.008c1.046-13.745,3.014-30.367,8.826-27.121,5.908,3.3,7.328,16.251,6.258,26.8v0c-.568,5.6-1.494,10.731-2.115,13.825-.4,1.7-.611,2.817-.643,3,.043-.179.3-1.272.643-3a87.461,87.461,0,0,1,2.609-9v0c.118-.336.24-.675.365-1.014,2.4-6.477,6.034-13.185,11.038-14.447,11.313-2.854-.587,29.547-.587,29.547" transform="translate(-11353.201 -10071.261)" fill="#7694f4"/>
    <path id="Path_94" data-name="Path 94" d="M1497.654,423.954a1.1,1.1,0,0,1-.211-.021,1.077,1.077,0,0,1-.847-1.267c.016-.083.414-2.077,1.182-5.179a1.077,1.077,0,1,1,2.092.518c-.756,3.053-1.156,5.06-1.16,5.08a1.077,1.077,0,0,1-1.055.868m20.509,47.638a1.078,1.078,0,0,0-1.237-1.764c-9.417,6.607-21.772,9.7-30.046,7.534a49.423,49.423,0,0,1-11.827-4.574,1.077,1.077,0,1,0-1.058,1.877,51.53,51.53,0,0,0,12.339,4.781,25.444,25.444,0,0,0,6.439.772c8.061,0,17.556-3.13,25.391-8.626M1493.268,447c6.62-7.473,17.044-9.048,23.98-8.127.033.006.067.011.1.014s.063.009.1.012a1.085,1.085,0,0,0,1.177-.974,1.073,1.073,0,0,0-.969-1.171l-.036,0-.029,0c-7.463-1.008-18.734.7-25.934,8.826a1.078,1.078,0,0,0,1.613,1.429" transform="translate(-11507.971 -10170.283)" fill="#d1860f"/>
    <path id="Path_95" data-name="Path 95" d="M1384.221,398.427h-.043a1.06,1.06,0,0,1-1.016-1.1c.1-2.4-1.166-7.4-1.178-7.449a1.06,1.06,0,0,1,2.054-.522c.055.217,1.35,5.351,1.242,8.055a1.06,1.06,0,0,1-1.058,1.017m31.677,2.049a60.5,60.5,0,0,1,2.248-8.247,1.06,1.06,0,1,0-1.961-.8,60.53,60.53,0,0,0-2.359,8.61,1.06,1.06,0,1,0,2.073.44M1401.783,398a1.06,1.06,0,0,0,1.04-1.079c-.014-.746-.017-1.533-.01-2.344.022-2.738.156-5.788.389-8.821a1.06,1.06,0,0,0-2.113-.162c-.236,3.079-.373,6.18-.4,8.968-.007.826,0,1.634.011,2.4a1.06,1.06,0,0,0,1.059,1.04h.02" transform="translate(-11445.934 -10148.549)" fill="#2c47d6"/>
    <path id="Path_96" data-name="Path 96" d="M1248.514,255.207a1.059,1.059,0,0,1-.933-.556,22.34,22.34,0,0,0-8.858-8.976,1.06,1.06,0,0,1,1.039-1.847,24.427,24.427,0,0,1,9.683,9.816,1.06,1.06,0,0,1-.931,1.563" transform="translate(-11348.456 -10053)" fill="#2c47d6"/>
    <path id="Path_97" data-name="Path 97" d="M1220.843,302.492a1.057,1.057,0,0,1-.846-.421c-2.92-3.87-6.358-5.249-10.51-4.211a1.06,1.06,0,1,1-.513-2.056c5-1.247,9.275.432,12.715,4.991a1.06,1.06,0,0,1-.845,1.7" transform="translate(-11328.107 -10088.063)" fill="#2c47d6"/>
    <path id="Path_98" data-name="Path 98" d="M1192.849,377.9a1.06,1.06,0,0,1-.373-2.052,21.394,21.394,0,0,1,13.118-.389,1.06,1.06,0,1,1-.519,2.055,19.353,19.353,0,0,0-11.853.318,1.059,1.059,0,0,1-.373.068" transform="translate(-11317 -10141.778)" fill="#2c47d6"/>
    <path id="Path_99" data-name="Path 99" d="M1704.637,343.756a1.125,1.125,0,0,1-.643-2.048,23.5,23.5,0,0,1,12.175-4.5,1.125,1.125,0,0,1,.12,2.247,21.29,21.29,0,0,0-11.01,4.1,1.122,1.122,0,0,1-.641.2" transform="translate(-11663.96 -10116.404)" fill="#d1860f"/>
    <path id="Path_100" data-name="Path 100" d="M1726.432,399.671a1.124,1.124,0,0,1-.394-.072,22.9,22.9,0,0,0-14.707-.36,1.125,1.125,0,1,1-.612-2.165,25.075,25.075,0,0,1,16.108.417,1.125,1.125,0,0,1-.395,2.179" transform="translate(-11668.292 -10156.237)" fill="#d1860f"/>
    <path id="Path_101" data-name="Path 101" d="M1728.987,460.14a1.119,1.119,0,0,1-.631-.194c-.05-.034-5.131-3.435-10.191-3.6a1.125,1.125,0,0,1,.073-2.249c5.723.186,11.154,3.831,11.383,3.987a1.125,1.125,0,0,1-.633,2.055" transform="translate(-11673.157 -10195.66)" fill="#d1860f"/>
  </g>
</svg>
