<svg xmlns="http://www.w3.org/2000/svg" width="52" height="47.404" viewBox="0 0 52 47.404">
  <g id="Group_87" data-name="Group 87" transform="translate(9614.104 9228.261)">
    <path id="Path_74" data-name="Path 74" d="M1764.535,838.533c-4.051.622-6.941,8.841-7.718,11.295,1.019-3.419,5.226-18.469.615-19.111-2.994-.417-4.881,5.874-5.816,11.654.055-.452,1.614-17.516-2.829-17.631-3.073-.079-5.762,9.526-5.726,17.247.012.423.021.824.028,1.2-.017-.394-.026-.8-.028-1.2-.171-5.57-1.056-14.828-5.037-14.654-7.06.309-1.046,29.42-5.578,24.14-7.172-8.354-16.121-9.1-17.765-5-1.46,3.651,10.139,7.563,11.729,12.738,2.647,8.616,11.741,13.651,19.323,12.843,10.154-1.082,13.825-6.782,17.248-19.986,0,0,6.874-14.355,1.556-13.539m-7.917,11.95c.022-.08.089-.3.195-.64-.1.339-.17.561-.195.64" transform="translate(-11328.657 -10053)" fill="#fdad17"/>
    <path id="Path_75" data-name="Path 75" d="M2055.265,991.368a.478.478,0,0,0-.579.349c-.534,2.165-1.052,3.958-1.313,4.835l0,.011,0,.006h0c-.124.393-.2.646-.226.741v0s0,0,0,.006h0v0a.019.019,0,0,1,0,0c0,.014-.009.028-.012.042s0,.018,0,.028,0,.016,0,.024a.477.477,0,0,0,.911.254.484.484,0,0,0,.021-.059.387.387,0,0,0,.012-.041c.033-.1.109-.352.219-.718.006-.017.01-.032.013-.045.265-.89.785-2.692,1.321-4.865a.478.478,0,0,0-.349-.579" transform="translate(-11627.24 -10199.57)" fill="#d1860f"/>
    <path id="Path_76" data-name="Path 76" d="M1905.219,1062.9a18.525,18.525,0,0,0-8.355-1.714.478.478,0,0,0,.042.955c3.873-.171,11.87,1.425,14.41,8.673a.478.478,0,0,0,.9-.316,13.164,13.164,0,0,0-7-7.6" transform="translate(-11489.423 -10261.388)" fill="#d1860f"/>
    <path id="Path_77" data-name="Path 77" d="M1942.983,966.827a.478.478,0,0,0,.462.493h.016a.478.478,0,0,0,.477-.462c0-.014.044-1.379.013-3.39-.008-.437-.018-.9-.032-1.4a.478.478,0,1,0-.956.028c.014.489.025.953.032,1.386.031,1.985-.012,3.329-.012,3.343" transform="translate(-11529.047 -10173.346)" fill="#d1860f"/>
    <path id="Path_78" data-name="Path 78" d="M2008.591,964.8a.478.478,0,0,0-.548.4c-.358,2.212-.625,4.555-.75,6.6a.478.478,0,0,0,.448.506h.03a.478.478,0,0,0,.477-.449c.124-2.013.387-4.323.74-6.5a.478.478,0,0,0-.4-.548" transform="translate(-11585.555 -10176.269)" fill="#d1860f"/>
    <path id="Path_113" data-name="Path 113" d="M1721.909,868.833a.478.478,0,0,1-.463-.362,8.485,8.485,0,0,1,1.416-6.656,19.718,19.718,0,0,1,4.828-4.7.478.478,0,0,1,.571.767,18.871,18.871,0,0,0-4.6,4.465,7.535,7.535,0,0,0-1.284,5.895.478.478,0,0,1-.464.594" transform="translate(-11327.61 -10080.978)" fill="#d1860f"/>
    <path id="Path_114" data-name="Path 114" d="M1693.444,857.133a.478.478,0,0,1-.463-.359c-.463-1.8.275-3.5.989-5.142.062-.142.123-.283.183-.424a9.53,9.53,0,0,1,3.85-4.033l.18-.124a.478.478,0,1,1,.543.786l-.181.125a8.661,8.661,0,0,0-3.514,3.622q-.091.214-.185.429c-.649,1.495-1.321,3.041-.94,4.523a.478.478,0,0,1-.463.6" transform="translate(-11303.259 -10072.36)" fill="#d1860f"/>
  </g>
</svg>
