<svg xmlns="http://www.w3.org/2000/svg" width="110.786" height="137.123" viewBox="0 0 110.786 137.123">
  <g id="Group_82" data-name="Group 82" transform="translate(7374.942 11920.438) rotate(17)">
    <path id="Path_62" data-name="Path 62" d="M877.308,860.234v0a143.2,143.2,0,0,0-10.8-30.275c.275-.769.5-1.561.826-2.32,7.451-17.51,8.787-27.252,2.426-28.138-3.387-.472-9.074,5.277-13.912,12.912-3.881-4.748-7.556-7.24-10.355-6.019-4.607,2.009-1.935,11.9,2.292,21.978-4.029,9.636-7.06,20.375-6.087,25.235l-.082.035c-1.183-2.66-2.7-3.669-4.443-4.154-7.85-2.2-11.983,5.637-12.018,5.817-7.109-2.8-12.438,8.36-12.7,15.313-.8,21.212,7.85,49.247,37.8,47.911s41.585-17.246,41.585-32.658c0-10.192-6.2-19.378-14.537-25.636" transform="translate(-11317 -10053)" fill="#7694f4"/>
    <path id="Path_63" data-name="Path 63" d="M892.057,892.906a.9.9,0,0,1-1.256.179,43.307,43.307,0,0,0-13.674-6.919c-1.189-.346-2.349-.636-3.447-.86-7.2-1.48-12.738-.409-14.119,2.728-1.215,2.76,1.128,6.719,6.116,10.331,11.1,8.039,16.466,14.305,16.689,14.568a.9.9,0,0,1-.613,1.475c-.235.019-23.518,1.985-23.251,12.747a.9.9,0,0,1-.875.919h-.023a.9.9,0,0,1-.9-.875c-.264-10.627,17.312-13.676,23.109-14.392a112.5,112.5,0,0,0-15.194-12.99,19.933,19.933,0,0,1-6.252-6.712c.327,2.437.556,5.3.694,8.658,0,.014,0,.028,0,.043s0,.028,0,.042c-.363,6.747-2.056,11.892-4.528,13.762a6.378,6.378,0,0,1-3.838,1.455,5.025,5.025,0,0,1-1.146-.134,6.88,6.88,0,0,1-3.64-2.485,6.488,6.488,0,0,1-3.519,3.69,7.853,7.853,0,0,1-2.554.462,5.66,5.66,0,0,1-3.312-1.041c-4.583-3.2-4.821-12.829-4.83-13.238a.9.9,0,0,1,.879-.914h.018a.9.9,0,0,1,.9.879c0,.091.228,9.124,4.065,11.8a4.473,4.473,0,0,0,4.254.352c1.219-.418,2.3-1.906,3.037-4.19,2.234-6.891.958-18.661-3.716-22.575a8.408,8.408,0,0,0-2.274-1.4l-.117-.044a.9.9,0,0,1,.623-1.683l.15.057a10.194,10.194,0,0,1,2.768,1.695c5.232,4.381,6.638,16.62,4.389,24.117a5.964,5.964,0,0,0,3.3,2.772,4.184,4.184,0,0,0,3.484-1.007c1.989-1.505,3.486-6.364,3.816-12.385-.313-7.549-1.112-12.67-2.442-15.653a.9.9,0,1,1,1.638-.731,19.625,19.625,0,0,1,1.066,3.179,5.54,5.54,0,0,1,.385-1.279c1.622-3.684,6.987-5.2,14.21-4.1a230.879,230.879,0,0,1-11.139-22.356.9.9,0,0,1,1.655-.693,233.1,233.1,0,0,0,11.792,23.475c1.027.221,2.1.49,3.193.81a45.114,45.114,0,0,1,14.249,7.206.9.9,0,0,1,.179,1.256m-12.324-30.423a.9.9,0,0,0,1.615-.782,92.38,92.38,0,0,0-10.774-17.723.9.9,0,0,0-1.388,1.137,90.611,90.611,0,0,1,10.547,17.369" transform="translate(-11331.032 -10085.137)" fill="#2c47d6"/>
  </g>
</svg>
